<?xml version="1.0" standalone="no"?><!DOCTYPE svg PUBLIC "-//W3C//DTD SVG 1.1//EN" "http://www.w3.org/Graphics/SVG/1.1/DTD/svg11.dtd"><svg t="1488850962278" class="icon" style="" viewBox="0 0 1024 1024" version="1.1" xmlns="http://www.w3.org/2000/svg" p-id="2570" xmlns:xlink="http://www.w3.org/1999/xlink" width="16" height="16"><defs><style type="text/css"></style></defs><path d="M496.478572 660.187385c17.177953 0 31.10591 13.933153 31.10591 31.10591 0 17.180951-13.928956 31.104711-31.10591 31.104711-17.177953 0-31.103912-13.92376-31.103912-31.104711C465.366665 674.119339 479.299619 660.187385 496.478572 660.187385L496.478572 660.187385zM496.478572 960.07626c0 0-78.28852-29.511191-78.28852-71.809113 0-29.929908 29.582743-97.4925 52.384883-145.11761 7.804908 3.906551 16.579759 6.160024 25.903637 6.160024 9.32188 0 18.095731-2.252273 25.89944-6.160024 22.800142 47.62511 52.385882 115.187703 52.385882 145.11761C574.764094 930.565269 496.478572 960.07626 496.478572 960.07626L496.478572 960.07626zM856.484488 959.715905c-20.091978 0-36.429901-16.350314-36.429901-36.441293 0-101.690854-46.414531-195.476467-127.326273-257.310344-15.970372-12.206124-19.0267-35.128183-6.827771-51.096357 12.156958-15.94359 35.07382-19.027699 51.053386-6.835965l0.007195 0.017388c99.119997 75.748443 155.965655 190.637947 155.965655 315.225277C892.92678 943.36639 876.58366 959.715905 856.484488 959.715905L856.484488 959.715905zM496.478572 63.920854c-147.709053 0-267.87658 120.175721-267.87658 267.886773 0 90.214035 46.437116 174.371576 120.913221 223.525849C200.912166 614.964046 100.027365 761.262656 100.027365 923.275611c0 20.090778 16.347317 36.441293 36.440293 36.441293s36.433098-16.350314 36.433098-36.441293c0-178.425627 145.16158-323.594403 323.579013-323.588207 147.712051 0 267.882775-120.167526 267.882775-267.879578C764.361347 184.095575 644.190623 63.920854 496.478572 63.920854zM496.478572 526.805818c-107.519902 0-194.997192-87.480288-194.997192-195.004387 0-107.520901 87.477091-195.00019 194.997192-195.00019 107.528096 0 195.006386 87.480288 195.006386 195.00019C691.484957 439.325529 604.006867 526.805818 496.478572 526.805818z" p-id="2571" fill="#ffffff"></path></svg>