<?xml version="1.0" standalone="no"?><!DOCTYPE svg PUBLIC "-//W3C//DTD SVG 1.1//EN" "http://www.w3.org/Graphics/SVG/1.1/DTD/svg11.dtd"><svg t="1488851213349" class="icon" style="" viewBox="0 0 1024 1024" version="1.1" xmlns="http://www.w3.org/2000/svg" p-id="7012" xmlns:xlink="http://www.w3.org/1999/xlink" width="16" height="16"><defs><style type="text/css"></style></defs><path d="M1018.378216 447.981656H544.003528V0h-32.917915C229.251373 0 0 229.702921 0 512.011289c0 282.28579 229.251373 511.988711 511.085613 511.988711 281.766509 0 510.995304-229.702921 510.995304-511.988711 0-9.685724-0.654746-19.281138-1.309492-28.786242l-2.393209-35.243391zM479.996472 65.11335v367.041517L235.843986 160.345012c68.29677-53.914938 148.153191-88.70678 244.152486-95.231662z m31.089141 894.879595c-246.59085 0-447.168868-200.91668-447.168867-447.981656 0-119.615302 47.119127-228.30312 123.679241-308.746555L479.996472 512.011289h480.01905c0 247.042399-202.361636 447.981656-448.929909 447.981656z m510.972727-609.794202C1010.182604 143.795745 810.575416 0 638.806218 0H608.010583v384.042333h415.96684l-1.919083-33.84359z m-350.063279-30.186043V65.926138c128.036688 14.720494 256.344306 113.609701 282.218058 254.086562h-282.218058z" fill="#ffffff" p-id="7013"></path></svg>