<?xml version="1.0" standalone="no"?><!DOCTYPE svg PUBLIC "-//W3C//DTD SVG 1.1//EN" "http://www.w3.org/Graphics/SVG/1.1/DTD/svg11.dtd"><svg class="icon" width="16px" height="16.00px" viewBox="0 0 1024 1024" version="1.1" xmlns="http://www.w3.org/2000/svg"><path d="M979.18887 922.401391 48.250435 922.401391c-22.528 0-40.781913 18.265043-40.781913 40.781913 0 22.505739 18.253913 40.770783 40.781913 40.770783l930.927304 0c22.51687 0 40.781913-18.265043 40.781913-40.770783C1019.970783 940.666435 1001.705739 922.401391 979.18887 922.401391L979.18887 922.401391zM454.466783 675.116522c10.48487 10.48487 27.648 10.48487 38.144 0l417.157565-417.157565c10.473739-10.496 10.473739-27.648 0-38.144l-2.092522-2.092522 52.880696-52.112696c10.573913-10.418087 10.640696-27.503304 0.155826-37.999304l-98.738087-98.749217c-10.48487-10.48487-27.648-10.48487-38.144 0l-52.502261 52.502261-1.057391-1.046261c-10.48487-10.496-27.648-10.496-38.144 0l-417.168696 417.157565c-10.48487 10.473739-10.48487 27.63687 0 38.13287L454.466783 675.116522 454.466783 675.116522zM126.697739 886.528 396.365913 750.191304c13.234087-6.700522 15.493565-20.74713 4.997565-31.24313l-122.534957-122.546087c-10.48487-10.473739-24.397913-8.147478-30.909217 5.175652L114.476522 874.473739C107.965217 887.808 113.463652 893.228522 126.697739 886.528L126.697739 886.528zM126.697739 886.528" fill="#ffffff" /></svg>