<?xml version="1.0" standalone="no"?><!DOCTYPE svg PUBLIC "-//W3C//DTD SVG 1.1//EN" "http://www.w3.org/Graphics/SVG/1.1/DTD/svg11.dtd"><svg t="1489040110445" class="icon" style="" viewBox="0 0 1024 1024" version="1.1" xmlns="http://www.w3.org/2000/svg" p-id="17317" xmlns:xlink="http://www.w3.org/1999/xlink" width="16" height="16"><defs><style type="text/css"></style></defs><path d="M820.659885 143.732911c181.177889 184.262882 151.549271 478.975357-39.367893 628.058848C676.758659 853.424257 558.478781 883.317677 428.028083 854.972795 298.369778 826.794042 203.775075 750.711311 139.124134 634.736116c-21.825519 30.085729-41.684658 59.929814-52.895949 94.465826-12.778959 39.370913-0.613173 56.305148 40.857026 57.844624 6.828467 0.250706 13.696201-0.871933 20.55588-1.038064 12.290636-0.29098 21.302964 7.31981 22.182952 18.452567 0.847769 10.752167-6.06326 20.107831-17.85047 21.486211-23.313646 2.722526-46.640381 2.41745-68.834408-6.606959-29.933694-12.176862-45.939612-42.123645-40.962745-75.388004 5.911225-39.51892 24.574224-73.548487 45.967804-106.316468 8.339751-12.775938 17.28764-25.197465 26.6574-37.235381 4.525797-5.818595 5.123867-10.671619 2.79804-17.699442-51.798481-156.59561-24.799759-298.754984 82.733993-423.435416C269.604031 78.950074 359.341683 33.387024 464.784203 20.023084c116.560175-14.770511 220.57498 16.560693 313.506365 87.080571 5.561848 4.220721 10.100734 4.724147 16.595933 2.65406 33.188845-10.586036 66.907294-19.210726 102.070575-18.161587 12.816212 0.384617 26.050268 2.128484 38.217062 6.003855 34.634684 11.035092 53.44267 44.767637 45.888263 80.416221-2.283539 10.797475-5.206429 21.507354-8.641806 31.992706-4.185482 12.771911-14.295277 18.169642-25.562952 14.575182-11.616045-3.704207-16.132781-14.257017-12.294663-27.720635 2.401341-8.418285 4.838928-16.912084 6.168979-25.540801 3.506864-22.783035-6.40861-37.109525-29.43933-38.448637-18.835171-1.099482-37.967362 1.061221-56.826697 3.093048C843.322098 137.170253 832.458171 140.929837 820.659885 143.732911zM697.201771 461.832533c-120.414402 0-240.090783 0-359.963499 0-0.294001 2.068073-0.752118 3.563247-0.680632 5.032244 3.193733 65.992066 18.354902 129.047147 47.132731 188.589323 1.685469 3.491761 8.031654 6.691535 12.223177 6.714692 80.585372 0.393679 161.174771 0.196336 241.762156 0.447042 7.187913 0.022151 11.231428-2.081162 13.637803-8.885464 10.290022-29.092973 22.471918-57.630165 30.901279-87.237639C691.817129 532.775288 696.731571 497.943261 697.201771 461.832533zM350.480383 419.551819c117.401903 0 231.677532 0 345.871606 0 4.648633-46.519559-26.17109-167.477661-51.183295-200.650397C541.039107 275.34753 444.22631 342.637428 350.480383 419.551819zM133.223985 419.628339c5.387662 0.309103 8.722354 0.662508 12.057046 0.666536 44.259177 0.036247 88.51332 0.053363 132.772497 0.009062 13.85629-0.013089 17.527271-3.083986 18.585471-17.045996 4.677832-61.755235 18.787849-121.164507 43.452689-178.026444 0.810515-1.87073 0.922276-4.047543 1.584784-7.110385-5.186292 0-9.324452 0.002014-13.465632 0-38.150609-0.009062-76.306253 0.281918-114.449814-0.314138-6.679453-0.104713-10.228604 1.562633-13.807961 6.824439-29.334618 43.146606-49.276318 90.261214-59.357922 141.382084C137.169836 383.39981 135.701846 401.171745 133.223985 419.628339zM900.095433 419.753189c-1.30488-12.417499-2.117409-23.396208-3.656885-34.272217-8.324648-58.787037-29.605461-112.562975-63.334985-161.365066-1.97947-2.862479-6.180054-5.953513-9.35365-5.960561-39.652832-0.078534-79.307677 0.396699-118.964536 0.720906-4.006262 0.031212-8.014538 0.005034-14.154318 0.005034 29.479604 65.091941 44.023574 131.616632 47.660322 200.871904C792.504291 419.753189 845.382116 419.753189 900.095433 419.753189zM690.943182 662.458765c6.578768 0 10.730016 0 14.882272 0 36.234571 0 72.527539-1.158886 108.673507 0.626262 12.761842 0.631296 18.068957-3.988139 23.958031-13.151494 26.274796-40.870115 44.849192-84.882614 54.328699-132.4936 3.661919-18.39417 5.245696-37.199135 7.787996-55.915497-55.723188 0-108.824535 0-162.413198 0C734.956688 531.289175 719.911306 597.38394 690.943182 662.458765zM295.851642 466.761071c-45.769454 40.955698-87.385647 82.649417-125.181844 128.071508-1.600894 1.9251-1.945237 6.665357-0.70983 8.894526 10.345399 18.635814 21.084477 37.052134 32.038014 55.333537 1.273667 2.12647 4.577147 4.324427 6.934186 4.315365 41.917241-0.106726 83.830454-0.541686 125.748701-0.96255 2.128484-0.022151 4.252941-0.519535 7.695366-0.971612C314.742189 599.581897 300.003898 535.465595 295.851642 466.761071zM558.696261 218.709113c0.729967 0.206405-0.615186-0.503426-1.96034-0.505439-54.228014-0.064438-108.460055-0.21748-162.688068 0.268829-3.607549 0.031212-8.955944 4.221728-10.470249 7.766852-8.978095 21.033127-18.528081 42.00685-25.076643 63.841432-8.220942 27.400456-13.738488 55.611428-20.403845 83.389453C412.882017 321.005224 486.150599 269.604449 558.696261 218.709113zM623.129721 703.591668c-71.557941 0-141.021632 0-212.604744 0 29.40107 45.123056 63.900836 82.774267 106.506763 113.133859C559.553092 785.731619 594.071988 748.692573 623.129721 703.591668zM622.8327 177.543991c-29.296357-45.230789-63.731685-82.263793-105.998303-112.622379C474.507368 95.839 439.594793 132.523634 411.317369 177.543991 482.589365 177.543991 551.493246 177.543991 622.8327 177.543991zM237.604277 178.029293c41.235602 0 78.920039-0.248692 116.594408 0.205398 7.650058 0.091623 11.048181-3.063849 15.21554-8.89654 19.461432-27.230298 39.437365-54.108198 59.800937-80.674981 6.575747-8.583409 14.888313-15.836767 24.687998-26.080474C368.307695 78.172784 298.329504 115.657865 237.604277 178.029293zM239.721686 702.917078c31.07345 47.76302 161.335867 117.346526 211.252543 113.487264-0.651433-1.038064-1.061221-2.130498-1.824415-2.851403-32.16085-30.354558-58.832345-65.051667-81.015297-103.195228-3.363891-5.788389-7.184892-7.668181-13.610618-7.570516-22.13563 0.335282-44.280321 0.129884-66.421992 0.129884C272.247016 702.917078 256.389105 702.917078 239.721686 702.917078zM582.456949 818.324408c83.817365-15.533705 153.709974-53.108395 212.842361-114.087348-2.999411-0.76118-4.024385-1.248496-5.052381-1.25353-37.783109-0.049336-75.569238-0.268829-113.343284 0.268829-3.759583 0.05437-8.55421 3.952899-10.994818 7.395324-11.009921 15.551828-20.442106 32.28872-32.149775 47.262615C617.878991 778.215472 600.44133 797.298328 582.456949 818.324408zM584.130336 63.536184c26.856756 33.300606 53.486971 66.3203 80.396084 99.687358 23.729476-10.801503 48.913852-22.265514 75.244025-34.25208C691.834246 94.821074 639.903867 73.165712 584.130336 63.536184zM241.189675 461.214326c-36.373516 0-71.193461 0-105.94494 0-2.081162 23.407283 7.900764 78.248469 16.423761 92.044348C181.06856 523.029972 210.526014 492.7469 241.189675 461.214326zM792.594907 177.804765c0.574912-0.879988 1.152845-1.76199 1.728764-2.642985-6.505267-5.300066-13.881461-15.801527-19.34061-14.884285-14.250976 2.397313-27.661231 9.794651-41.409788 15.193389 0.324206 0.778296 0.649419 1.557599 0.971612 2.333882C753.894557 177.804765 773.246242 177.804765 792.594907 177.804765z" p-id="17318" fill="#ffffff"></path></svg>