<?xml version="1.0" encoding="utf-8"?>
<!-- Generator: Adobe Illustrator 19.0.0, SVG Export Plug-In . SVG Version: 6.00 Build 0)  -->
<svg version="1.1" id="图层_1" xmlns="http://www.w3.org/2000/svg" xmlns:xlink="http://www.w3.org/1999/xlink" x="0px" y="0px"
	 viewBox="0 0 20 20" style="enable-background:new 0 0 20 20;" xml:space="preserve">
<style type="text/css">
	.st0{fill-rule:evenodd;clip-rule:evenodd;fill:#4D76BB;}
</style>
<path id="XMLID_9_" class="st0" d="M9.9,19.3c-0.6,0-1.1-0.5-1.1-1.1v-1.5c0-0.6,0.5-1.1,1.1-1.1h0.9l1.8-2.6
	c-0.8-0.4-1.3-1.2-1.3-2c0-1.2,1-2.3,2.3-2.3s2.3,1,2.3,2.3c0,0.9-0.5,1.7-1.3,2l1.8,2.6h0.9c0.6,0,1.1,0.5,1.1,1.1v1.5
	c0,0.6-0.5,1.1-1.1,1.1H9.9z M17.3,18.2v-1.5H9.9v1.5H17.3z M15,15.6l-1.4-1.9l-0.1,0l-1.4,1.9H15z M13.6,9.9
	c-0.6,0-1.2,0.5-1.2,1.2c0,0.6,0.5,1.2,1.1,1.2h0c0.6,0,1.1-0.5,1.1-1.2C14.7,10.4,14.2,9.9,13.6,9.9z M2.7,18.5
	c-0.6,0-1.1-0.5-1.1-1.1V1.8c0-0.6,0.5-1.1,1.1-1.1h12c0.6,0,1.1,0.5,1.1,1.1v7.4l-0.3-0.3c-0.2-0.2-0.5-0.4-0.8-0.6l-0.1,0V1.8h-12
	v15.6l5.6,0v0.1c0,0,0,0,0,0l0,0.9H2.7z M4.7,7.8c-0.3,0-0.5-0.2-0.5-0.5c0-0.3,0.2-0.5,0.5-0.5h8.2c0.3,0,0.5,0.2,0.5,0.5
	c0,0.1-0.1,0.3-0.2,0.4c-0.1,0.1-0.2,0.2-0.4,0.2H4.7z M4.6,5.6c-0.3,0-0.5-0.2-0.5-0.5c0-0.3,0.2-0.5,0.5-0.5h8.3
	c0.3,0,0.5,0.2,0.5,0.5c0,0.3-0.2,0.5-0.5,0.5H4.6z"/>
</svg>
