<?xml version="1.0" encoding="utf-8"?>
<!-- Generator: Adobe Illustrator 19.0.0, SVG Export Plug-In . SVG Version: 6.00 Build 0)  -->
<svg version="1.1" id="图层_1" xmlns="http://www.w3.org/2000/svg" xmlns:xlink="http://www.w3.org/1999/xlink" x="0px" y="0px"
	 viewBox="0 0 20 20" style="enable-background:new 0 0 20 20;" xml:space="preserve">
<style type="text/css">
	.st0{fill-rule:evenodd;clip-rule:evenodd;fill:#4D76BB;}
</style>
<g id="XMLID_8_">
	<path id="XMLID_10_" class="st0" d="M12.2,18.8c-0.6,0-1.2-0.5-1.2-1.2v-3.8c0-0.6,0.5-1.2,1.2-1.2h2.1v-1.5H5.7v1.5h2.1
		c0.6,0,1.2,0.5,1.2,1.2v3.8c0,0.6-0.5,1.2-1.2,1.2H2.4c-0.6,0-1.2-0.5-1.2-1.2v-3.8c0-0.6,0.5-1.2,1.2-1.2h2.1V9.9h4.9v-2H6.2
		C5.6,7.9,5,7.4,5,6.7V2.4c0-0.6,0.5-1.2,1.2-1.2h7.6c0.6,0,1.2,0.5,1.2,1.2v4.3c0,0.6-0.5,1.2-1.2,1.2h-3.2v2h4.9v2.7h2.1
		c0.6,0,1.2,0.5,1.2,1.2v3.8c0,0.6-0.5,1.2-1.2,1.2H12.2z M17.5,17.5v-3.6h-5.3v3.6H17.5z M7.8,17.5v-3.6H2.5v3.6H7.8z M5.6,11v-0.9
		H4.7V11H5.6z M13.7,6.7V2.5H6.3v4.2H13.7z"/>
	<rect id="XMLID_1_" x="4.6" y="10" class="st0" width="1.1" height="1.1"/>
</g>
</svg>
