<?xml version="1.0" encoding="utf-8"?>
<!-- Generator: Adobe Illustrator 19.0.0, SVG Export Plug-In . SVG Version: 6.00 Build 0)  -->
<svg version="1.1" id="图层_1" xmlns="http://www.w3.org/2000/svg" xmlns:xlink="http://www.w3.org/1999/xlink" x="0px" y="0px"
	 viewBox="0 0 20 20" style="enable-background:new 0 0 20 20;" xml:space="preserve">
<style type="text/css">
	.st0{fill-rule:evenodd;clip-rule:evenodd;fill:#4D76BB;}
</style>
<path id="XMLID_11_" class="st0" d="M10,18.8c-1.2,0-2.4-0.2-3.5-0.7c-1.1-0.5-2-1.1-2.9-1.9c-0.8-0.8-1.5-1.8-1.9-2.9
	C1.2,12.1,1,10.9,1,9.7s0.2-2.4,0.7-3.5c0.5-1.1,1.1-2,1.9-2.9c0.8-0.8,1.8-1.5,2.9-1.9C7.6,0.9,8.8,0.7,10,0.7s2.4,0.2,3.5,0.7
	c1.1,0.5,2,1.1,2.9,1.9c0.8,0.8,1.5,1.8,1.9,2.9C18.8,7.3,19,8.5,19,9.7s-0.2,2.4-0.7,3.5c-0.5,1.1-1.1,2-1.9,2.9
	c-0.8,0.8-1.8,1.5-2.9,1.9C12.4,18.5,11.2,18.8,10,18.8z M10.7,17.3c1.8-0.2,3.4-0.9,4.7-2.2c1.3-1.3,2.1-3,2.2-4.8h-2.3
	c-0.2,1.2-0.7,2.3-1.6,3.1c-0.8,0.8-1.9,1.4-3.1,1.5V17.3z M2.4,10.4c0.1,1.8,0.9,3.5,2.2,4.8c1.3,1.3,2.9,2,4.6,2.2V15
	c-1.2-0.1-2.3-0.7-3.2-1.5c-0.8-0.8-1.4-1.9-1.5-3.1H2.4z M6,10.4c0.3,1.7,1.6,2.9,3.3,3.2v-3.2H6z M10.7,13.6
	c1.6-0.3,2.9-1.6,3.2-3.2h-3.2V13.6z M17.6,9c-0.2-1.8-0.9-3.3-2.2-4.6c-1.3-1.3-2.9-2.1-4.7-2.2v2.1c1.2,0.2,2.2,0.7,3.1,1.5
	c0.9,0.9,1.4,2,1.6,3.2H17.6z M13.9,9c-0.3-1.7-1.6-3-3.2-3.3V9H13.9z M9.2,9V5.6C7.5,5.9,6.2,7.3,5.9,9H9.2z M4.5,9
	c0.1-1.2,0.7-2.3,1.5-3.2c0.9-0.9,2-1.4,3.2-1.6V2.1C7.5,2.3,5.9,3.1,4.6,4.3C3.3,5.6,2.6,7.2,2.4,9H4.5z"/>
</svg>
