<?xml version="1.0" standalone="no"?><!DOCTYPE svg PUBLIC "-//W3C//DTD SVG 1.1//EN" "http://www.w3.org/Graphics/SVG/1.1/DTD/svg11.dtd"><svg class="icon" width="16px" height="16.00px" viewBox="0 0 1024 1024" version="1.1" xmlns="http://www.w3.org/2000/svg"><path d="M511.998465 504.005932c45.195342 0 80.504522-45.914726 85.87688-111.656009 3.1262-38.022988-4.311189-68.291362-21.491477-87.524403-14.835893-16.612353-36.500309-25.034163-64.385403-25.034163s-49.547463 8.42181-64.377216 25.028023c-17.188474 19.22997-24.608467 49.496298-21.491477 87.530543 5.386684 65.74026 40.698934 111.656009 85.868693 111.656009z" fill="#ffffff" /><path d="M511.998465 74.055646c-188.384531 0-341.102748 152.718217-341.102748 341.103772 0 295.90843 303.440987 534.785959 341.102748 534.785959S853.101213 711.067848 853.101213 415.159418c0-188.385555-152.717194-341.103772-341.102748-341.103772z m0 92.142584c137.495514 0 248.960165 111.464651 248.960165 248.963235 0 65.135486-25.218358 124.238582-66.163909 168.607092-19.164478-32.305777-71.940472-52.442396-95.618754-58.143235-4.288676-1.033539-8.704243-1.567705-13.519922-1.567705-5.146207 0-10.038634 1.017166-13.763468 2.850931-0.353041 0.163729-34.763758 18.038842-59.894112 18.041912-25.128307-0.002047-59.540048-17.878183-59.894112-18.041912-3.723811-1.833765-8.615215-2.850931-13.763468-2.850931-4.815679 0-9.230222 0.534166-13.519922 1.567705-23.677259 5.700839-76.455299 25.838482-95.618754 58.145282-40.947598-44.36851-66.163909-103.473653-66.163909-168.609139 0.001023-137.498584 111.461581-248.963235 248.960165-248.963235z" fill="#ffffff" /></svg>