<?xml version="1.0" standalone="no"?><!DOCTYPE svg PUBLIC "-//W3C//DTD SVG 1.1//EN" "http://www.w3.org/Graphics/SVG/1.1/DTD/svg11.dtd"><svg t="1489039716575" class="icon" style="" viewBox="0 0 1201 1024" version="1.1" xmlns="http://www.w3.org/2000/svg" p-id="16503" xmlns:xlink="http://www.w3.org/1999/xlink" width="18.765625" height="16"><defs><style type="text/css"></style></defs><path d="M989.5 714.125c-67.375 0-122.125-54.625-122.125-122.125 0-1.375 0-2.625 0.125-4L798.375 572.5c-14.5 46.5-44.875 86-84.875 111.875l58.125 100.625c11.25-3.375 23.125-5.25 35.5-5.25 67.375 0 122.125 54.625 122.125 122.125 0 67.5-54.625 122.125-122.125 122.125-67.375 0-122.125-54.625-122.125-122.125 0-40.375 19.625-76.125 49.75-98.375l-57.875-100.375c-23.375 9.125-48.75 14.25-75.375 14.25-58.5 0-111.25-24.375-148.75-63.5l-134.75 106.25c9.625 17.375 15 37.5 15 58.75 0 67.5-54.625 122.125-122.125 122.125-67.375 0-122.125-54.625-122.125-122.125 0-67.5 54.625-122.125 122.125-122.125 31.75 0 60.75 12.125 82.375 32l134.75-106.25c-20.75-32.125-32.75-70.5-32.75-111.625 0-49.5 17.375-94.875 46.5-130.5L282.625 221.375c-20 14.375-44.625 22.875-71.125 22.875-67.375 0-122.125-54.625-122.125-122.125 0-67.5 54.625-122.125 122.125-122.125 67.375 0 122.125 54.625 122.125 122.125 0 26.625-8.5 51.25-23 71.375L469.5 352.5c35.75-29.875 81.75-47.75 132-47.75 18 0 35.5 2.375 52.25 6.75l32.125-81.5C647.5 209.25 621.375 168.75 621.375 122.125c0-67.5 54.625-122.125 122.125-122.125 67.375 0 122.125 54.625 122.125 122.125 0 67.5-54.625 122.125-122.125 122.125-7.625 0-15.125-0.75-22.375-2.125L688.75 324c70.25 32.875 118.875 104.25 118.875 187 0 7.125-0.375 14.125-1.125 21.125l69.125 15.625c17.75-45.5 62-77.875 113.75-77.875 67.375 0 122.125 54.625 122.125 122.125C1111.5 659.5 1056.875 714.125 989.5 714.125L989.5 714.125 989.5 714.125zM601.375 349.625c-90.5 0-163.875 73.375-163.875 163.875 0 90.5 73.375 163.875 163.875 163.875 90.5 0 163.875-73.375 163.875-163.875C765.25 423.125 691.875 349.625 601.375 349.625L601.375 349.625 601.375 349.625zM601.375 349.625" p-id="16504" fill="#ffffff"></path></svg>