<?xml version="1.0" standalone="no"?><!DOCTYPE svg PUBLIC "-//W3C//DTD SVG 1.1//EN" "http://www.w3.org/Graphics/SVG/1.1/DTD/svg11.dtd"><svg class="icon" width="16px" height="15.98px" viewBox="0 0 1025 1024" version="1.1" xmlns="http://www.w3.org/2000/svg"><path d="M897.09568 526.4384c29.5936-37.973333 47.465813-85.439147 47.465813-138.51648 0-123.951787-101.90848-225.60768-225.6384-225.60768-51.636907 0-98.850133 17.3056-137.110187 46.06976-8.635733 7.263573-17.585493 14.810453-25.678507 23.190187-12.008107-25.135787-28.480853-48.325973-48.039253-68.140373-44.376747-44.120747-105.25696-71.48544-173.397333-71.48544-67.310933 0-128.730453 27.364693-172.567893 71.48544-44.407467 44.407467-72.05888 105.823573-72.05888 173.13792 0 58.617173 20.10112 111.684267 53.613227 153.009493-72.884907 70.36928-141.85472 137.939627-141.85472 256.058027l0 80.984747c0 21.504 17.6128 39.089493 39.65952 39.089493l89.361067 0 0 26.821973c0 21.504 17.8688 39.089493 39.08608 39.089493l0 0 698.38848 0c21.787307 0 39.3728-17.585493 39.3728-39.089493l0-3.6352 0-16.75264 77.346133 0c22.074027 0 39.662933-17.872213 39.662933-39.3728l0-73.43104C1024.7168 650.134187 965.782187 592.892587 897.09568 526.4384L897.09568 526.4384zM629.568853 270.946987 629.568853 270.946987c24.876373-18.72896 55.872853-29.88032 89.357653-29.88032 80.97792 0 146.889387 65.880747 146.889387 146.855253 0 41.065813-16.469333 77.63968-43.004587 104.174933-23.446187 23.190187-54.729387 38.79936-88.784213 42.72128 3.058347-15.64672 5.577387-30.70976 5.577387-46.895787 0-86.012587-59.76064-161.98656-141.85472-183.207253C606.692693 291.88096 617.301333 280.695467 629.568853 270.946987L629.568853 270.946987zM550.847147 377.606827 550.847147 377.606827c60.306773 0 109.714773 49.98144 109.714773 110.31552 0 30.70976-12.26752 58.074453-32.11264 77.892267-20.10112 20.10112-47.752533 32.395947-77.605547 32.395947-60.8768 0-110.861653-48.581973-110.861653-110.288213C439.988907 427.588267 489.970347 377.606827 550.847147 377.606827L550.847147 377.606827zM217.408853 219.27936 217.408853 219.27936c30.16704-30.16704 72.05888-48.868693 117.292373-48.868693 46.06976 0 87.412053 18.701653 117.838507 48.868693 23.186773 23.190187 39.656107 53.613227 45.806933 87.125333-79.865173 22.900053-136.850773 97.163947-136.850773 181.517653 0 4.461227 0.28672 8.635733 0.28672 12.837547-8.379733 1.65888-17.03936 1.9456-27.077973 1.9456-45.236907 0-87.412053-18.418347-117.292373-48.295253-30.139733-30.170453-48.581973-71.77216-48.581973-117.838507C168.830293 290.7648 187.528533 249.4464 217.408853 219.27936L217.408853 219.27936zM209.032533 853.152427 209.032533 853.152427l0-24.019627 0.57344-1.109333 0-0.54272 0-111.7184c0-12.837547-10.89536-23.732907-24.019627-23.732907s-23.446187 10.89536-23.446187 23.732907l0 71.48544L80.30208 787.247787l0-41.608533c0-85.722453 58.105173-141.564587 118.981973-200.471893l3.06176-2.515627c51.667627 33.4848 115.032747 45.779627 175.909547 34.628267l5.604693-0.856747c3.631787 7.550293 8.379733 14.80704 13.38368 21.787307-51.923627 50.55488-99.96288 100.795733-99.96288 187.378347l0 58.903893c0 3.089067 0.57344 5.860693 1.112747 8.659627L209.032533 853.152427 209.032533 853.152427zM725.07392 805.113173 725.07392 805.113173l-46.349653 0L678.724267 763.8016c0-13.124267-10.898773-23.732907-23.732907-23.732907-13.12768 0-23.732907 10.60864-23.732907 23.732907l0 89.35424-161.416533 0L469.84192 763.8016c0-13.124267-10.60864-23.732907-23.732907-23.732907-13.124267 0-23.732907 10.60864-23.732907 23.732907l0 41.314987-46.353067 0 0-19.524267c0-55.845547 37.973333-94.675627 79.035733-134.597973 8.093013 4.46464 15.926613 8.383147 24.306347 11.7248l0.256 0.546133 0.57344 0c21.504 8.66304 45.523627 13.697707 70.656 13.697707 34.597547 0 66.996907-9.7792 94.931627-25.96864 42.43456 41.321813 79.291733 77.63968 79.291733 134.597973L725.07392 805.113173 725.07392 805.113173zM946.251093 793.391787 946.251093 793.391787l-69.82656 0 0-61.416107c0-12.868267-10.60864-23.476907-23.446187-23.476907s-23.732907 10.60864-23.732907 23.476907l0 121.176747-26.821973 0c0.57344-2.798933 1.11616-5.57056 1.11616-8.659627l0-58.903893c0-79.31904-37.116587-125.098667-83.49696-172.02176 43.291307 0 84.066987-12.294827 118.981973-34.061653l3.058347 3.34848 0 0 0 0c55.845547 53.613227 104.168107 99.966293 104.168107 176.482987L946.251093 793.391787 946.251093 793.391787z" fill="#ffffff" /></svg>