<?xml version="1.0" encoding="utf-8"?>
<!-- Generator: Adobe Illustrator 19.0.0, SVG Export Plug-In . SVG Version: 6.00 Build 0)  -->
<svg version="1.1" id="图层_1" xmlns="http://www.w3.org/2000/svg" xmlns:xlink="http://www.w3.org/1999/xlink" x="0px" y="0px"
	 viewBox="0 0 20 20" style="enable-background:new 0 0 20 20;" xml:space="preserve">
<style type="text/css">
	.st0{fill-rule:evenodd;clip-rule:evenodd;fill:#4D76BB;}
</style>
<g id="XMLID_9_">
	<path id="XMLID_16_" class="st0" d="M10,19c-0.3,0-0.5-0.2-0.5-0.5v-3.2l-5.2,3.5c-0.1,0.1-0.2,0.1-0.3,0.1c-0.2,0-0.3-0.1-0.4-0.2
		c-0.1-0.1-0.1-0.3-0.1-0.4c0-0.1,0.1-0.3,0.2-0.3l5.8-3.9v-0.5H2.8c-0.6,0-1.1-0.5-1.1-1.1V2.1C1.8,1.5,2.2,1,2.8,1h14.3
		c0.6,0,1.1,0.5,1.1,1.1v10.3c0,0.6-0.5,1.1-1.1,1.1h-6.6v0.5l5.8,3.9c0.1,0.1,0.2,0.2,0.2,0.3c0,0.1,0,0.3-0.1,0.4
		c-0.1,0.1-0.3,0.2-0.4,0.2c-0.1,0-0.2,0-0.3-0.1l-5.2-3.5v3.2C10.5,18.8,10.3,19,10,19z M2.8,12.4h14.4l0-10.3H2.8V12.4z"/>
	<path id="XMLID_10_" class="st0" d="M11.1,10.7c-0.7,0-1.3-0.6-1.3-1.3c0-0.3,0.1-0.5,0.2-0.8l0.1-0.1L8.5,6.4l-0.1,0
		C8.2,6.5,8.1,6.5,7.9,6.5c-0.3,0-0.6-0.1-0.8-0.3L7,6.1L6.5,6.5l0,0.1c0.1,0.2,0.1,0.3,0.1,0.5c0,0.7-0.6,1.3-1.3,1.3
		C4.6,8.4,4,7.8,4,7.1c0-0.7,0.6-1.3,1.3-1.3c0.3,0,0.6,0.1,0.8,0.3l0.1,0.1l0.5-0.3l0-0.1C6.6,5.5,6.5,5.3,6.5,5.1
		c0-0.7,0.6-1.3,1.3-1.3c0.7,0,1.3,0.6,1.3,1.3c0,0.3-0.1,0.6-0.3,0.8L8.9,6.1l1.6,2.2l0.1-0.1c0.2-0.1,0.4-0.1,0.5-0.1
		c0.2,0,0.4,0,0.6,0.1l0.1,0.1L13.6,6l-0.1-0.1c-0.2-0.2-0.3-0.5-0.3-0.8c0-0.7,0.6-1.3,1.3-1.3S16,4.4,16,5.1
		c0,0.4-0.1,0.7-0.4,0.9c-0.3,0.3-0.6,0.4-0.9,0.4c-0.2,0-0.4,0-0.5-0.1l-0.1,0l-1.8,2.3l0.1,0.1c0.1,0.2,0.2,0.5,0.2,0.7
		C12.5,10.1,11.9,10.7,11.1,10.7z M11.1,8.8c-0.1,0-0.2,0-0.3,0.1c-0.1,0-0.1,0.1-0.2,0.2c-0.1,0.1-0.1,0.2-0.1,0.3
		c0,0.3,0.3,0.6,0.6,0.6c0.3,0,0.6-0.3,0.6-0.6c0-0.1,0-0.2-0.1-0.3c0-0.1-0.1-0.1-0.2-0.2C11.4,8.8,11.2,8.8,11.1,8.8z M5.3,6.5
		C5,6.5,4.7,6.8,4.7,7.1c0,0.3,0.3,0.6,0.6,0.6c0.3,0,0.6-0.3,0.6-0.6c0-0.1,0-0.2-0.1-0.3c0-0.1-0.1-0.1-0.2-0.2
		C5.6,6.6,5.5,6.5,5.3,6.5z M14.7,4.5c-0.3,0-0.6,0.3-0.6,0.6c0,0.2,0.1,0.3,0.1,0.4c0.1,0.1,0.1,0.1,0.2,0.2c0.1,0,0.2,0.1,0.3,0.1
		c0.3,0,0.6-0.3,0.6-0.6C15.3,4.8,15,4.5,14.7,4.5z M7.9,4.5c-0.3,0-0.6,0.3-0.6,0.6c0,0.1,0,0.2,0.1,0.3c0,0.1,0.1,0.1,0.2,0.2
		c0.1,0.1,0.2,0.1,0.4,0.1c0.1,0,0.2,0,0.2-0.1c0.1,0,0.1-0.1,0.2-0.1c0.1-0.1,0.2-0.2,0.2-0.4C8.5,4.8,8.2,4.5,7.9,4.5z"/>
</g>
</svg>
