<?xml version="1.0" standalone="no"?><!DOCTYPE svg PUBLIC "-//W3C//DTD SVG 1.1//EN" "http://www.w3.org/Graphics/SVG/1.1/DTD/svg11.dtd"><svg class="icon" width="16px" height="16.00px" viewBox="0 0 1024 1024" version="1.1" xmlns="http://www.w3.org/2000/svg"><path d="M887.168 959.456 887.168 116.192 753.856 0 310.112 165.824l0 41.472 402.976-135.808 0 948.832 268.256 0 0-60.864L887.168 959.456zM165.728 699.68l211.296-42.272 0-107.232L165.728 605.76 165.728 699.68zM165.728 1021.76l211.296 0 0-112.512-211.296 15.328L165.728 1021.76zM165.728 860.192l211.296-20.416 0-107.04-211.296 35.52L165.728 860.192zM165.728 536.096l211.296-58.208 0-111.328-211.296 71.488L165.728 536.096zM611.392 259.168l-119.296-72.512L42.88 348.64 42.656 1024l59.168 0L101.824 381.312l336.096-110.688 0 749.92 173.504 0L611.424 259.168zM611.392 259.168" fill="#ffffff" /></svg>