<?xml version="1.0" standalone="no"?><!DOCTYPE svg PUBLIC "-//W3C//DTD SVG 1.1//EN" "http://www.w3.org/Graphics/SVG/1.1/DTD/svg11.dtd"><svg class="icon" width="16px" height="16.00px" viewBox="0 0 1024 1024" version="1.1" xmlns="http://www.w3.org/2000/svg"><path d="M888.306528 959.372074 135.698588 959.372074c-23.985274 0-43.421952-18.791995-43.421952-41.971927L92.276636 189.885721c0-23.185049 19.435655-41.978067 43.421952-41.978067l72.366168 0 0 41.978067c0 46.359864 38.883589 83.938738 86.837764 83.938738 47.960315 0 86.837764-37.578874 86.837764-83.938738l0-41.978067 43.421952 0 0 41.978067c0 46.359864 38.883589 83.938738 86.837764 83.938738 47.965431 0 86.837764-37.578874 86.837764-83.938738l0-41.978067 43.421952 0 0 41.978067c0 46.359864 38.883589 83.938738 86.837764 83.938738 47.960315 0 86.837764-37.578874 86.837764-83.938738l0-41.978067 72.371284 0c23.980157 0 43.415812 18.791995 43.415812 41.978067l0 727.513402C931.72234 940.580079 912.286686 959.372074 888.306528 959.372074zM772.518409 385.750621 251.486708 385.750621c-23.985274 0-43.421952 18.798135-43.421952 41.978067s19.435655 41.971927 43.421952 41.971927L772.518409 469.700615c23.980157 0 43.415812-18.791995 43.415812-41.971927S796.498566 385.750621 772.518409 385.750621zM772.518409 567.636135 251.486708 567.636135c-23.985274 0-43.421952 18.786878-43.421952 41.971927 0 23.179932 19.435655 41.971927 43.421952 41.971927L772.518409 651.579989c23.980157 0 43.415812-18.791995 43.415812-41.971927C815.935244 586.423013 796.498566 567.636135 772.518409 567.636135zM779.760346 749.516532 244.249887 749.516532c-19.990287 0-36.186154 15.658631-36.186154 34.976606 0 19.312858 16.195867 34.976606 36.186154 34.976606l535.51046 0c19.97903 0 36.174897-15.663748 36.174897-34.976606C815.935244 765.175163 799.739377 749.516532 779.760346 749.516532zM729.09748 231.858672c-23.975041 0-43.421952-18.791995-43.421952-41.971927L685.675528 105.941867c0-23.185049 19.446911-41.978067 43.421952-41.978067 23.980157 0 43.421952 18.791995 43.421952 41.978067l0 83.944877C772.518409 213.065653 753.077637 231.858672 729.09748 231.858672zM512 231.858672c-23.980157 0-43.415812-18.791995-43.415812-41.971927L468.584188 105.941867c0-23.185049 19.435655-41.978067 43.415812-41.978067 23.980157 0 43.421952 18.791995 43.421952 41.978067l0 83.944877C555.421952 213.065653 535.980157 231.858672 512 231.858672zM294.90252 231.858672c-23.980157 0-43.415812-18.791995-43.415812-41.971927L251.486708 105.941867c0-23.185049 19.435655-41.978067 43.415812-41.978067 23.980157 0 43.421952 18.791995 43.421952 41.978067l0 83.944877C338.324472 213.065653 318.882678 231.858672 294.90252 231.858672z" fill="#ffffff" /></svg>