<?xml version="1.0" encoding="utf-8"?>
<!-- Generator: Adobe Illustrator 19.0.0, SVG Export Plug-In . SVG Version: 6.00 Build 0)  -->
<svg version="1.1" id="图层_1" xmlns="http://www.w3.org/2000/svg" xmlns:xlink="http://www.w3.org/1999/xlink" x="0px" y="0px"
	 viewBox="0 0 20 20" style="enable-background:new 0 0 20 20;" xml:space="preserve">
<style type="text/css">
	.st0{fill-rule:evenodd;clip-rule:evenodd;fill:#4D76BB;}
</style>
<path id="XMLID_4_" class="st0" d="M4.8,19.8c0,0-4.6-0.6-4.6-5.3c0-3.8,3.6-5,4.6-5h0.3c0.2,0,0.3,0,0.5,0c0.9,0,1.7,0.2,2.4,0.6
	L6.2,5.6l-2.6,1l0,0c-0.1,0-0.1,0-0.2,0c-0.2,0-0.4-0.1-0.5-0.2L1.3,4.6C1.2,4.5,1.1,4.3,1.1,4.1l0.7-3.3c0.1-0.3,0.3-0.5,0.7-0.5
	h6.4c0.2,0,0.4,0.1,0.6,0.3l10.1,15.3c0,0,0,0.1,0.1,0.1c0,0,0,0,0,0l0,0v0c0,0,0,0,0,0.1c0.3,1.4,0,2.3-0.3,2.7
	c-0.4,0.6-1.1,0.9-2.1,0.9H4.8z M17.2,18.4c0.5,0,0.8-0.1,1-0.4c0.3-0.4,0.3-1.1,0.1-1.6l-9.9-15H3L2.5,4l1,1.2L8,3.6
	c0.1,0,0.2,0,0.2,0c0.3,0,0.5,0.2,0.6,0.4c0.1,0.3,0,0.7-0.4,0.9l-1,0.4l2.9,6.6c0,0.1,0.1,0.1,0.1,0.1c0,0,0,0,0,0l1.5,3.4
	c0.1,0.2,0.1,0.3,0,0.5c-0.1,0.2-0.2,0.3-0.4,0.4c0,0,0,0,0,0c-0.1,0-0.1,0-0.2,0c-0.2,0-0.5-0.2-0.6-0.4l-1.5-3.4
	c-0.7-0.8-1.9-1.8-3.6-1.8c-0.2,0-0.3,0-0.4,0l0,0H4.9c-0.4,0-3.3,0.7-3.3,3.7c0,3.4,3.1,3.9,3.4,4H17.2z"/>
</svg>
