<?xml version="1.0" standalone="no"?><!DOCTYPE svg PUBLIC "-//W3C//DTD SVG 1.1//EN" "http://www.w3.org/Graphics/SVG/1.1/DTD/svg11.dtd"><svg class="icon" width="16px" height="16.00px" viewBox="0 0 1024 1024" version="1.1" xmlns="http://www.w3.org/2000/svg"><path d="M268.202667 297.6c25.856 77.845333 97.792 77.845333 123.050666 0 8.192-4.394667 17.024-17.578667 18.282667-28.245333 1.258667-11.306667 0.64-26.368-10.730667-26.368-2.496-36.437333-22.698667-67.178667-68.138666-67.178667-44.821333 0-67.541333 26.986667-70.058667 67.157333-11.370667 0-12.608 15.082667-10.730667 26.368 1.28 10.666667 10.133333 23.872 18.325334 28.266667z" fill="#ffffff" /><path d="M434.176 717.632c29.653333 0 54.250667-24.469333 54.250667-53.994667v-1.877333l210.773333-209.706667c5.696-5.653333 5.696-15.082667 0-20.714666s-15.168-5.653333-20.864 0l-190.549333 188.992V442.026667c0-38.933333-28.394667-72.192-68.138667-81.002667l-29.034667-6.272c-25.258667 49.6-96.554667 49.6-121.173333 0l-29.034667 6.272c-39.765333 8.170667-68.16 42.069333-68.16 81.002667v221.632a54.122667 54.122667 0 0 0 54.272 53.994666 26.88 26.88 0 0 0 27.136 27.008h153.344a27.349333 27.349333 0 0 0 27.178667-27.029333z" fill="#ffffff" /><path d="M90.218667 695.018667c23.36 10.026667 49.856-6.293333 49.856-32.042667 0-11.285333-6.933333-20.714667-17.664-24.448-33.450667-11.946667-58.069333-43.328-58.069334-81.024V150.058667a85.973333 85.973333 0 0 1 86.464-86.016h719.402667a85.994667 85.994667 0 0 1 86.485333 86.016v407.445333a86.016 86.016 0 0 1-86.485333 86.037333h-286.506667a32.213333 32.213333 0 0 0-32.192 32c0 17.6 14.506667 32.021333 32.192 32.021334H870.826667c83.306667 0 150.848-67.157333 150.848-150.058667V150.058667C1021.696 67.178667 954.154667 0 870.826667 0H151.466667C68.16 0 0.64 67.178667 0.64 150.058667v407.445333C0 619.050667 37.226667 671.786667 90.218667 695.018667z m121.194666 101.717333H98.432C44.16 796.736 0 840.661333 0 894.677333V1024h309.824v-129.344c0-53.994667-44.138667-97.92-98.410667-97.92z m357.162667 0h-112.341333c-54.272 0-98.453333 43.946667-98.453334 97.941333V1024h309.845334v-129.344a99.2 99.2 0 0 0-99.050667-97.92z m357.184 0H813.44c-54.293333 0-98.453333 43.946667-98.453333 97.941333V1024H1024.853333v-129.344c0-53.994667-44.181333-97.92-99.093333-97.92z" fill="#ffffff" /></svg>