<?xml version="1.0" standalone="no"?><!DOCTYPE svg PUBLIC "-//W3C//DTD SVG 1.1//EN" "http://www.w3.org/Graphics/SVG/1.1/DTD/svg11.dtd"><svg class="icon" width="16px" height="13.54px" viewBox="0 0 1210 1024" version="1.1" xmlns="http://www.w3.org/2000/svg"><path d="M1170.941112 1023.998879 1005.79984 1023.998879C983.076823 1023.998879 966.945808 1007.588673 966.945808 984.431359L966.945808 44.846235C966.945808 22.061176 973.708426 15.174473 996.09021 15.174473L1180.635232 15.174473C1203.048037 15.174473 1209.795145 22.061176 1209.795145 44.846235L1209.795145 984.431359C1209.795145 1007.588673 1193.67964 1023.998879 1170.941112 1023.998879ZM1107.781982 193.205046 1068.94346 193.205046C1053.045103 193.205046 1039.783547 199.114582 1039.783547 212.96554 1039.783547 226.863031 1053.045103 232.772566 1068.94346 232.772566L1107.781982 232.772566C1123.71136 232.772566 1136.941895 226.863031 1136.941895 212.96554 1136.941895 199.114582 1123.71136 193.205046 1107.781982 193.205046ZM1107.781982 292.10058 1068.94346 292.10058C1053.045103 292.10058 1039.783547 298.025626 1039.783547 311.876585 1039.783547 325.743054 1053.045103 331.6681 1068.94346 331.6681L1107.781982 331.6681C1123.71136 331.6681 1136.941895 325.743054 1136.941895 311.876585 1136.941895 298.025626 1123.71136 292.10058 1107.781982 292.10058ZM1107.781982 391.011625 1068.94346 391.011625C1053.045103 391.011625 1039.783547 396.936671 1039.783547 410.787629 1039.783547 424.654098 1053.045103 430.563634 1068.94346 430.563634L1107.781982 430.563634C1123.71136 430.563634 1136.941895 424.654098 1136.941895 410.787629 1136.941895 396.936671 1123.71136 391.011625 1107.781982 391.011625ZM1107.781982 484.97479 1068.94346 484.97479C1053.045103 484.97479 1039.783547 490.899836 1039.783547 504.766305 1039.783547 518.617264 1053.045103 524.526799 1068.94346 524.526799L1107.781982 524.526799C1123.71136 524.526799 1136.941895 518.617264 1136.941895 504.766305 1136.941895 490.899836 1123.71136 484.97479 1107.781982 484.97479ZM918.366634 1023.998879 753.240873 1023.998879C730.517856 1023.998879 714.38684 1007.588673 714.38684 984.431359L714.38684 44.846235C714.38684 22.061176 721.164969 15.174473 743.531243 15.174473L928.091775 15.174473C950.473559 15.174473 957.236177 22.061176 957.236177 44.846235L957.236177 984.431359C957.236177 1007.588673 941.120672 1023.998879 918.366634 1023.998879ZM855.238525 193.205046 816.368982 193.205046C800.486136 193.205046 787.24009 199.114582 787.24009 212.96554 787.24009 226.863031 800.486136 232.772566 816.368982 232.772566L855.238525 232.772566C871.136882 232.772566 884.367417 226.863031 884.367417 212.96554 884.367417 199.114582 871.136882 193.205046 855.238525 193.205046ZM855.238525 292.10058 816.368982 292.10058C800.486136 292.10058 787.24009 298.025626 787.24009 311.876585 787.24009 325.743054 800.486136 331.6681 816.368982 331.6681L855.238525 331.6681C871.136882 331.6681 884.367417 325.743054 884.367417 311.876585 884.367417 298.025626 871.136882 292.10058 855.238525 292.10058ZM855.238525 391.011625 816.368982 391.011625C800.486136 391.011625 787.24009 396.936671 787.24009 410.787629 787.24009 424.654098 800.486136 430.563634 816.368982 430.563634L855.238525 430.563634C871.136882 430.563634 884.367417 424.654098 884.367417 410.787629 884.367417 396.936671 871.136882 391.011625 855.238525 391.011625ZM855.238525 484.97479 816.368982 484.97479C800.486136 484.97479 787.24009 490.899836 787.24009 504.766305 787.24009 518.617264 800.486136 524.526799 816.368982 524.526799L855.238525 524.526799C871.136882 524.526799 884.367417 518.617264 884.367417 504.766305 884.367417 490.899836 871.136882 484.97479 855.238525 484.97479ZM660.952851 1023.998879 495.82709 1023.998879C473.088563 1023.998879 456.973058 1007.588673 456.973058 984.431359L456.973058 174.17355 235.885081 994.68386C229.851461 1017.003602 210.044435 1028.48144 188.127969 1022.370267L28.865211 977.885889C6.948745 971.759205-4.327455 951.626457 1.690655 929.275694L245.842881 23.162428C251.767927 1.183919 260.097115-3.639875 281.656838 2.393745L456.973058 51.345173 456.973058 44.846235C456.973058 22.061176 463.735676 15.174473 486.11746 15.174473L670.662482 15.174473C693.044266 15.174473 699.822395 22.061176 699.822395 44.846235L699.822395 984.431359C699.822395 1007.588673 683.70689 1023.998879 660.952851 1023.998879ZM243.9661 422.6067 281.43969 433.07635C296.779665 437.357273 311.080431 435.201301 314.678888 421.862192L314.678888 421.846681C318.292856 408.492062 307.063187 399.201217 291.723212 394.904783L254.249622 384.450644C238.925157 380.185231 224.624391 382.310182 221.010424 395.680313 217.411966 409.050443 228.641635 418.325777 243.9661 422.6067ZM196.596752 486.29319C192.982784 499.663321 204.227963 508.938655 219.552428 513.219578L257.041528 523.673717C272.365993 527.95464 286.68227 525.814178 290.265216 512.459559 293.879184 499.089429 282.634005 489.814095 267.30954 485.533171L229.83595 475.079032C214.511486 470.798109 200.195209 472.938571 196.596752 486.29319ZM269.682661 327.232071 307.156251 337.68621C322.480716 341.967133 336.796992 339.842182 340.395449 326.472052 343.978396 313.101922 332.764238 303.826588 317.424263 299.545664L279.950673 289.076015C264.626208 284.779581 250.309932 286.935553 246.711474 300.321194 243.097506 313.675813 254.342686 322.951147 269.682661 327.232071ZM295.383712 231.857441 332.857302 242.327091C348.181766 246.576993 362.482532 244.452042 366.0965 231.081912L366.0965 231.081912C369.694957 217.711782 358.449778 208.436448 343.140824 204.155524L305.667234 193.701385C290.311748 189.420462 276.026493 191.560924 272.412525 204.915543 268.814068 218.285673 280.043736 227.561007 295.383712 231.857441ZM283.316471 33.632077 39.148734 939.745344 283.316471 33.632077 442.563718 78.085434 283.316471 33.632077ZM597.824742 193.205046 558.97071 193.205046C543.072353 193.205046 529.841818 199.114582 529.841818 212.96554 529.841818 226.863031 543.087864 232.772566 558.97071 232.772566L597.824742 232.772566C613.73861 232.772566 626.969145 226.863031 626.969145 212.96554 626.969145 199.114582 613.73861 193.205046 597.824742 193.205046ZM597.824742 292.10058 558.97071 292.10058C543.072353 292.10058 529.841818 298.025626 529.841818 311.876585 529.841818 325.743054 543.087864 331.6681 558.97071 331.6681L597.824742 331.6681C613.73861 331.6681 626.969145 325.743054 626.969145 311.876585 626.969145 298.025626 613.73861 292.10058 597.824742 292.10058ZM597.824742 391.011625 558.97071 391.011625C543.072353 391.011625 529.841818 396.936671 529.841818 410.787629 529.841818 424.654098 543.087864 430.563634 558.97071 430.563634L597.824742 430.563634C613.73861 430.563634 626.969145 424.654098 626.969145 410.787629 626.969145 396.936671 613.73861 391.011625 597.824742 391.011625ZM597.824742 484.97479 558.97071 484.97479C543.072353 484.97479 529.841818 490.899836 529.841818 504.766305 529.841818 518.617264 543.087864 524.526799 558.97071 524.526799L597.824742 524.526799C613.73861 524.526799 626.969145 518.617264 626.969145 504.766305 626.969145 490.899836 613.73861 484.97479 597.824742 484.97479Z" fill="#ffffff" /></svg>