<?xml version="1.0" encoding="utf-8"?>
<!-- Generator: Adobe Illustrator 19.0.0, SVG Export Plug-In . SVG Version: 6.00 Build 0)  -->
<svg version="1.1" id="图层_1" xmlns="http://www.w3.org/2000/svg" xmlns:xlink="http://www.w3.org/1999/xlink" x="0px" y="0px"
	 viewBox="0 0 20 20" style="enable-background:new 0 0 20 20;" xml:space="preserve">
<style type="text/css">
	.st0{fill-rule:evenodd;clip-rule:evenodd;fill:#4D76BB;}
</style>
<g id="XMLID_9_">
	<path id="XMLID_7_" class="st0" d="M6,3.4H14c0.2,0,0.4-0.2,0.4-0.4c0-0.2-0.2-0.4-0.4-0.4H6C5.8,2.5,5.6,2.7,5.6,3
		C5.6,3.2,5.8,3.4,6,3.4L6,3.4z"/>
	<path id="XMLID_6_" class="st0" d="M5.5,5.6h9c0.2,0,0.4-0.2,0.4-0.4c0-0.2-0.2-0.4-0.4-0.4h-9c-0.2,0-0.4,0.2-0.4,0.4
		C5.1,5.4,5.3,5.6,5.5,5.6L5.5,5.6z"/>
	<path id="XMLID_5_" class="st0" d="M4.8,7.8h10.3c0.2,0,0.4-0.2,0.4-0.4c0-0.2-0.2-0.4-0.4-0.4H4.8c-0.2,0-0.4,0.2-0.4,0.4
		C4.4,7.6,4.6,7.8,4.8,7.8L4.8,7.8z"/>
	<path id="XMLID_4_" class="st0" d="M13.1,14.8H6.9c-0.3,0-0.6,0.3-0.6,0.6c0,0.3,0.3,0.6,0.6,0.6h6.3c0.3,0,0.6-0.3,0.6-0.6
		C13.7,15,13.4,14.8,13.1,14.8L13.1,14.8z"/>
	<path id="XMLID_10_" class="st0" d="M19.8,10.2l-2.7-8.7C16.8,0.6,15.9,0,15,0H5C4.1,0,3.2,0.6,2.9,1.5l-2.7,8.7
		C0.1,10.4,0,10.7,0,11v7.1c0,1,0.8,1.9,1.9,1.9h16.2c1,0,1.9-0.8,1.9-1.9V11C20,10.7,19.9,10.4,19.8,10.2L19.8,10.2z M4.3,1.9
		C4.4,1.7,4.7,1.4,5,1.4h10c0.3,0,0.7,0.3,0.7,0.5L18,9.1h-5.3c-0.3,0-0.6,0.2-0.7,0.5c-0.3,0.9-1.1,1.4-2,1.4c-0.9,0-1.7-0.6-2-1.4
		C7.9,9.3,7.6,9.1,7.3,9.1H2L4.3,1.9L4.3,1.9z M18.6,18.1c0,0.2-0.2,0.4-0.4,0.4H1.9c-0.2,0-0.4-0.2-0.4-0.4V11
		c0-0.2,0.2-0.4,0.4-0.4h5c0.6,1.2,1.8,1.9,3.2,1.9c1.3,0,2.6-0.8,3.2-1.9h5c0.2,0,0.4,0.2,0.4,0.4V18.1L18.6,18.1z"/>
</g>
</svg>
